<?xml version="1.0"?>
<svg width="2493" height="1011" xmlns="http://www.w3.org/2000/svg" xmlns:svg="http://www.w3.org/2000/svg" version="1.1">
 <title>Group 28</title>
 <g class="layer">
  <title>Layer 1</title>
  <g fill="none" fill-rule="evenodd" id="Assets">
   <g id="Group-28">
    <path d="m1485.91,121.08l-961.44,0c-7.64,0 -14.55,3.06 -19.55,8c-5,4.94 -8.09,11.77 -8.09,19.32l0,651.06c0,7.54 3.1,14.37 8.1,19.32c4.99,4.95 11.9,8 19.55,8l961.44,0c7.64,0 14.55,-3.06 19.55,-8c5,-4.94 8.09,-11.77 8.09,-19.32l0,-651.06c0,-7.54 -3.1,-14.37 -8.1,-19.32c-4.99,-4.95 -11.9,-8 -19.55,-8z" fill="#FFFFFF" id="Case" stroke="#141C3A" stroke-width="8"/>
    <path d="m1438.54,181.6l-867.7,0c-3.27,0 -6.23,1.31 -8.37,3.44c-2.14,2.12 -3.46,5.05 -3.46,8.29l0,485.09c0,3.24 1.32,6.17 3.46,8.29c2.14,2.13 5.1,3.44 8.37,3.44l867.7,0c3.27,0 6.23,-1.31 8.37,-3.44c2.14,-2.12 3.46,-5.05 3.46,-8.29l0,-485.09c0,-3.24 -1.32,-6.17 -3.46,-8.29c-2.14,-2.13 -5.1,-3.44 -8.37,-3.44z" fill="#6E07F3" id="svg_1" stroke="#6E07F3" stroke-width="8"/>
    <path d="m1078.58,826.78l-145.8,0l-9.84,125.91l165.48,0l-9.84,-125.91z" fill="#FFFFFF" id="svg_2" stroke="#141C3A" stroke-width="8"/>
    <path d="m1146.35,986.86l-285.28,0c-0.27,0 -0.51,-0.11 -0.7,-0.28c-0.18,-0.19 -0.29,-0.43 -0.29,-0.7l0,-13.17c0,-3.9 1.6,-7.45 4.2,-10c2.59,-2.57 6.17,-4.15 10.13,-4.15l258.61,0c3.96,0 7.54,1.58 10.13,4.15c2.6,2.56 4.2,6.1 4.2,10l0,13.17c0,0.27 -0.11,0.52 -0.29,0.7c-0.18,0.18 -0.43,0.28 -0.7,0.28z" fill="#FFFFFF" id="Keyboard" stroke="#141C3A" stroke-width="8" transform="translate(2 -6)"/>
    <circle cx="1005.68" cy="763.82" id="Oval-6" r="18.06" stroke="#141C3A" stroke-width="8"/>
    <rect fill="#FFFFFF" height="379.69" id="svg_3" rx="24" stroke="#141C3A" stroke-width="8" width="195.45" x="403.04" y="601.31"/>
    <path d="m598.49,644.26l-195.45,0l0,280.43l195.45,0l0,-280.43z" fill="#141C3A" id="svg_4" stroke="#141C3A" stroke-width="8"/>
    <rect fill="#141C3A" height="7.81" id="Rectangle-11" rx="4" width="93.78" x="454.37" y="618.88"/>
    <rect fill="#141C3A" height="22.25" id="svg_13" rx="11.4" width="22.51" x="489.91" y="940.98"/>
    <circle cx="458.32" cy="783.83" fill="#6E07F3" id="svg_11" r="14.64" stroke="#6E07F3" stroke-width="8"/>
    <g fill="#FFFFFF" id="Group-73" transform="translate(480 779)">
     <rect height="7.81" id="svg_14" rx="4" width="69.1" x="19.05" y="-1.9"/>
     <rect height="7.81" id="svg_15" rx="4" width="49.36" x="19.05" y="19.57"/>
     <rect height="7.81" id="svg_16" rx="4" width="29.61" x="19.05" y="41.04"/>
    </g>
    <circle cx="302.85" cy="635.96" fill="#7f7f7f" id="Oval-7" r="149.83" stroke="#141C3A" stroke-width="8"/>
    <path d="m1934.08,454.9l-675.21,0c-7.63,0 -14.54,3.06 -19.54,8c-5,4.95 -8.09,11.78 -8.09,19.33l0,430.45c0,7.55 3.09,14.38 8.09,19.33c5,4.94 11.9,8 19.54,8l675.21,0c7.63,0 14.54,-3.06 19.54,-8c5,-4.95 8.09,-11.78 8.09,-19.33l0,-430.45c0,-7.55 -3.09,-14.38 -8.09,-19.33c-5,-4.94 -11.9,-8 -19.54,-8z" fill="#FFFFFF" id="svg_5" stroke="#141C3A" stroke-width="8"/>
    <path d="m2011.08,940l-829.2,0c-0.27,0 -0.51,0.11 -0.69,0.28c-0.18,0.18 -0.29,0.42 -0.29,0.69l0,19.52c0,5.66 2.32,10.79 6.07,14.49c3.75,3.71 8.94,6 14.67,6l789.68,0c5.73,0 10.92,-2.29 14.67,-6c3.75,-3.71 6.07,-8.83 6.07,-14.49l0,-19.52c0,-0.27 -0.11,-0.52 -0.29,-0.69c-0.18,-0.18 -0.42,-0.28 -0.69,-0.28z" fill="#FFFFFF" id="svg_10" stroke="#141C3A" stroke-width="8"/>
    <path d="m1651.05,940.44l-110.54,0c1.92,5.01 5.15,9.39 9.28,12.72c5.27,4.26 12,6.8 19.33,6.8l53.31,0c7.33,0 14.07,-2.56 19.34,-6.8c4.13,-3.34 7.35,-7.71 9.28,-12.72z" fill="#FFFFFF" id="Notch" stroke="#141C3A" stroke-width="8"/>
    <rect fill="#7f7f7f" height="401.99" id="Screen" rx="8" width="672.63" x="1259.86" y="496.87"/>
    <g id="Group-69">
     <circle cx="983.47" cy="190.38" fill="#293347" id="Oval-3" r="4.88"/>
     <path d="m1149.31,55.68l-440.26,0l0,424.59c0,5.4 2.21,10.28 5.78,13.8c3.57,3.53 8.51,5.72 13.97,5.72l400.75,0c5.46,0 10.39,-2.19 13.97,-5.72c3.57,-3.53 5.78,-8.41 5.78,-13.8l0,-424.59z" fill="#000c0c" id="svg_6" stroke="#0c0c0c" stroke-width="8"/>
     <path d="m1129.55,2l-400.75,0c-5.46,0 -10.39,2.19 -13.97,5.72c-3.57,3.53 -5.78,8.41 -5.78,13.8l0,26.35l440.26,0l0,-26.35c0,-5.39 -2.21,-10.27 -5.78,-13.8c-3.57,-3.53 -8.51,-5.72 -13.97,-5.72z" fill="#332f2f" id="svg_7" stroke="#0c0c0c" stroke-width="8"/>
     <circle cx="743.6" cy="25.43" fill="#141c3a" id="Oval-5" r="8.78"/>
     <circle cx="773.21" cy="25.43" fill="#6E07F3" id="svg_45" r="8.78"/>
     <circle cx="802.83" cy="25.43" fill="#7f7f7f" id="svg_46" r="8.78"/>
     <g id="Group-72">
      <rect fill="#535B6B" height="7.81" id="svg_17" opacity="0.54" rx="4" width="17.77" x="757.42" y="331.91"/>
      <rect fill="#535B6B" height="7.81" id="svg_18" opacity="0.54" rx="4" width="17.77" x="757.42" y="136.7"/>
      <path d="m790.98,136.7l26.65,0c2.18,0 3.95,1.75 3.95,3.9c0,2.16 -1.77,3.9 -3.95,3.9l-26.65,0c-2.18,0 -3.95,-1.75 -3.95,-3.9c0,-2.16 1.77,-3.9 3.95,-3.9z" fill="#6E07F3" id="svg_19"/>
      <path d="m835.4,136.7l26.65,0c2.18,0 3.95,1.75 3.95,3.9c0,2.16 -1.77,3.9 -3.95,3.9l-26.65,0c-2.18,0 -3.95,-1.75 -3.95,-3.9c0,-2.16 1.77,-3.9 3.95,-3.9z" fill="#7f7f7f" id="svg_20"/>
      <path d="m879.82,136.7l49.36,0c2.18,0 3.95,1.75 3.95,3.9c0,2.16 -1.77,3.9 -3.95,3.9l-49.36,0c-2.18,0 -3.95,-1.75 -3.95,-3.9c0,-2.16 1.77,-3.9 3.95,-3.9z" fill="#6E07F3" id="svg_21"/>
      <path d="m946.95,136.7l73.05,0c2.18,0 3.95,1.75 3.95,3.9c0,2.16 -1.77,3.9 -3.95,3.9l-73.05,0c-2.18,0 -3.95,-1.75 -3.95,-3.9c0,-2.16 1.77,-3.9 3.95,-3.9z" fill="#6E07F3" id="svg_22"/>
      <rect fill="#535B6B" height="7.81" id="svg_23" opacity="0.54" rx="4" width="17.77" x="757.42" y="175.74"/>
      <rect fill="#535B6B" height="7.81" id="svg_24" opacity="0.54" rx="4" width="17.77" x="757.42" y="214.78"/>
      <rect fill="#535B6B" height="7.81" id="svg_25" opacity="0.54" rx="4" width="17.77" x="757.42" y="253.83"/>
      <rect fill="#535B6B" height="7.81" id="svg_26" opacity="0.54" rx="4" width="17.77" x="757.42" y="292.87"/>
      <rect fill="#535B6B" height="7.81" id="svg_27" opacity="0.54" rx="4" width="17.77" x="757.42" y="370.96"/>
      <rect fill="#535B6B" height="7.81" id="svg_28" opacity="0.54" rx="4" width="17.77" x="757.42" y="410"/>
      <rect fill="#6E07F3" height="7.81" id="svg_29" rx="4" width="69.1" x="787.03" y="175.74"/>
      <rect fill="#7f7f7f" height="7.81" id="svg_30" rx="4" width="118.45" x="866" y="175.74"/>
      <rect fill="#6E07F3" height="7.81" id="svg_31" rx="4" width="49.36" x="994.33" y="175.74"/>
      <rect fill="#7f7f7f" height="7.81" id="svg_32" rx="4" width="49.36" x="787.03" y="214.78"/>
      <rect fill="#6E07F3" height="7.81" id="svg_33" rx="4" width="49.36" x="846.26" y="214.78"/>
      <rect fill="#6E07F3" height="7.81" id="svg_34" rx="4" width="29.61" x="905.49" y="214.78"/>
      <rect fill="#6E07F3" height="7.81" id="svg_35" rx="4" width="98.71" x="787.03" y="253.83"/>
      <rect fill="#6E07F3" height="7.81" id="svg_36" rx="4" width="69.1" x="895.62" y="253.83"/>
      <rect fill="#6E07F3" height="7.81" id="svg_37" rx="4" width="98.71" x="787.03" y="292.87"/>
      <rect fill="#7f7f7f" height="7.81" id="svg_38" rx="4" width="128.33" x="895.62" y="292.87"/>
      <rect fill="#6E07F3" height="7.81" id="svg_39" rx="4" width="69.1" x="787.03" y="331.91"/>
      <rect fill="#7f7f7f" height="7.81" id="svg_40" rx="4" width="69.1" x="866" y="331.91"/>
      <rect fill="#6E07F3" height="7.81" id="svg_41" rx="4" width="39.48" x="944.97" y="331.91"/>
      <rect fill="#6E07F3" height="7.81" id="svg_42" rx="4" width="128.33" x="787.03" y="370.96"/>
      <rect fill="#7f7f7f" height="7.81" id="svg_43" rx="4" width="59.23" x="787.03" y="410"/>
     </g>
    </g>
    <g id="Group-68">
     <path d="m2132.48,357.29l-540.94,0l0,380.67c0,7.55 3.09,14.38 8.09,19.33c5,4.95 11.91,8 19.55,8l485.64,0c7.64,0 14.55,-3.06 19.55,-8c5,-4.95 8.09,-11.78 8.09,-19.33l0,-380.67z" fill="#0c0c0c" id="svg_8" stroke="#000000" stroke-width="8"/>
     <path d="m2104.83,308.49l-485.64,0c-7.64,0 -14.55,3.06 -19.55,8c-5,4.94 -8.09,11.77 -8.09,19.32l0,29.29l540.94,0l0,-29.29c0,-7.55 -3.1,-14.38 -8.09,-19.32c-5,-4.95 -11.92,-8 -19.55,-8z" fill="#0c0c0c" id="svg_9" stroke="#000000" stroke-width="8"/>
     <circle cx="1633.98" cy="336.79" fill="#141c3a" id="svg_47" r="8.78" stroke="#000000"/>
     <circle cx="1663.6" cy="336.79" fill="#6E07F3" id="svg_48" r="8.78" stroke="#000000"/>
     <circle cx="1693.21" cy="336.79" fill="#7f7f7f" id="svg_49" r="8.78" stroke="#000000"/>
     <g id="Group-61">
      <circle cx="1926.17" cy="561.29" id="svg_12" r="97.61" stroke="#000000" stroke-width="9"/>
      <path d="m1939.01,451.97l-23.69,0l0,23.43l23.69,0l0,-23.43z" fill="#FFFFFE" id="Rectangle-12" stroke="#000000" stroke-width="8"/>
      <path d="m1938.02,647.18l-23.69,0l0,23.43l23.69,0l0,-23.43z" fill="#FFFFFE" id="svg_52" stroke="#000000" stroke-width="8"/>
      <path d="m1839.31,550.55l-23.69,0l0,23.43l23.69,0l0,-23.43z" fill="#FFFFFE" id="svg_53" stroke="#000000" stroke-width="8"/>
      <line id="Line" stroke="#000000" stroke-linecap="square" stroke-width="8" x1="2024.88" x2="2024.88" y1="473.44" y2="546.65"/>
      <line id="svg_55" stroke="#000000" stroke-linecap="square" stroke-width="8" x1="2024.88" x2="2024.88" y1="575.93" y2="649.14"/>
      <circle cx="2024.88" cy="470.51" fill="#141C3A" id="svg_50" r="11.71" stroke="#000000"/>
      <circle cx="2024.88" cy="655.97" fill="#141C3A" id="svg_51" r="11.71" stroke="#000000"/>
      <path d="m2035.74,550.55l-23.69,0l0,23.43l23.69,0l0,-23.43z" fill="#FFFFFE" id="svg_54" stroke="#000000" stroke-width="8"/>
     </g>
     <g id="Group-60">
      <rect fill="#141C3A" height="68.33" id="Rectangle-15" rx="12" stroke="#000000" width="69.1" x="1684.33" y="439.28"/>
      <rect fill="#7f7f7f" height="68.33" id="svg_56" rx="12" stroke="#000000" width="69.1" x="1684.33" y="527.13"/>
      <rect fill="#6E07F3" height="68.33" id="svg_57" rx="12" stroke="#000000" width="69.1" x="1684.33" y="614.97"/>
     </g>
    </g>
    <g id="Group-65" stroke="#141C3A" stroke-width="8">
     <g fill="#FFFFFF" id="Group-64" transform="translate(116 51)">
      <circle cx="2302.27" cy="837.52" id="Oval-8" r="58.56"/>
      <circle cx="2302.27" cy="837.52" id="svg_58" r="34.16"/>
     </g>
     <circle cx="2337.8" cy="798.47" fill="#FFFFFE" id="svg_59" r="19.52"/>
     <path d="m2418.68,793.59l-167.74,0c-1.09,0 -2.07,0.44 -2.79,1.14c-0.71,0.71 -1.15,1.69 -1.15,2.76l0,163.98c0,5.39 2.21,10.27 5.78,13.8c3.57,3.53 8.51,5.72 13.96,5.72l136.15,0c5.45,0 10.38,-2.19 13.96,-5.72c3.57,-3.53 5.78,-8.41 5.78,-13.8l0,-163.98c0,-1.07 -0.44,-2.05 -1.15,-2.76c-0.72,-0.7 -1.71,-1.14 -2.79,-1.14z" fill="#FFFFFF" id="Rectangle-16"/>
     <path d="m2374.33,846.3l-35.54,0c-2.18,0 -4.16,0.88 -5.59,2.28c-1.42,1.42 -2.31,3.37 -2.31,5.52l0,46.85c0,2.16 0.89,4.11 2.31,5.52c1.43,1.41 3.41,2.28 5.59,2.28l35.54,0c2.18,0 4.16,-0.88 5.59,-2.28c1.42,-1.42 2.31,-3.37 2.31,-5.52l0,-46.85c0,-2.16 -0.89,-4.11 -2.31,-5.52c-1.43,-1.41 -3.41,-2.28 -5.59,-2.28z" fill="#7f7f7f" id="svg_61"/>
     <line id="Line-2" stroke-linecap="square" x1="2356.06" x2="2356.06" y1="795.06" y2="839.47"/>
    </g>
    <g id="Group-78" transform="translate(2080 948)">
     <path d="m81.24,2.2c-16.03,0 -30.54,6.42 -41.04,16.81c-9.58,9.49 -15.83,22.27 -16.85,36.49l115.79,0c-1.02,-14.21 -7.27,-27 -16.85,-36.49c-10.5,-10.39 -25.01,-16.81 -41.04,-16.81z" fill="#FFFFFF" id="svg_60" stroke="#141C3A" stroke-width="8.4"/>
     <rect fill="#141C3A" height="12.69" id="svg_44" rx="4" width="7.9" x="77.29" y="2.98"/>
    </g>
    <g id="Group-27" transform="translate(0 885)">
     <path d="m320.12,2l-238.88,0c-16.08,0 -30.64,6.44 -41.18,16.87c-10.54,10.42 -17.06,24.82 -17.06,40.72c0,15.9 6.52,30.3 17.06,40.72c10.54,10.42 25.1,16.87 41.18,16.87l238.88,0c1.64,0 3.12,-0.65 4.19,-1.72c1.08,-1.05 1.74,-2.52 1.74,-4.14l0,-9.07c0,-2.04 -0.8,-3.91 -2.12,-5.32c-1.31,-1.4 -3.15,-2.32 -5.21,-2.47c-13.67,-0.96 -23.83,-4.38 -30.63,-9.96c-7.18,-5.88 -10.9,-14.13 -10.9,-24.92c0,-10.8 3.72,-19.14 10.99,-25.15c6.86,-5.68 17.1,-9.29 30.92,-10.52c1.97,-0.23 3.71,-1.17 4.96,-2.56c1.25,-1.39 2,-3.21 2,-5.19l0,-8.31c0,-1.62 -0.66,-3.08 -1.74,-4.14c-1.07,-1.06 -2.55,-1.72 -4.19,-1.72z" fill="#6E07F3" id="Rectangle-17" stroke="#141C3A" stroke-width="8"/>
     <path d="m308.07,24.45l-227.82,0c-9.81,0 -18.7,3.93 -25.13,10.29c-6.43,6.36 -10.4,15.15 -10.4,24.85c0,9.7 3.98,18.49 10.4,24.85c6.44,6.35 15.32,10.29 25.13,10.29c107.5,0 183.93,0.2 229.31,0.61l0,0c-7.95,-2.12 -17.06,-5.12 -23.52,-11.69c-5.19,-5.27 -8.85,-12.79 -8.85,-24.05c0,-11.37 3.73,-18.91 9,-24.17c6.05,-6.03 14.37,-8.98 21.88,-10.97z" fill="#FFFFFF" id="Rectangle-19" stroke="#141C3A" stroke-width="8"/>
     <path d="m76.24,68.37l199.54,0c2.14,0 3.88,1.75 3.88,3.9c0,2.16 -1.74,3.9 -3.88,3.9l-199.54,0c-2.14,0 -3.88,-1.75 -3.88,-3.9c0,-2.16 1.74,-3.9 3.88,-3.9z" fill="#141C3A" id="Rectangle-18"/>
     <path d="m76.24,43l199.54,0c2.14,0 3.88,1.75 3.88,3.9c0,2.16 -1.74,3.9 -3.88,3.9l-199.54,0c-2.14,0 -3.88,-1.75 -3.88,-3.9c0,-2.16 1.74,-3.9 3.88,-3.9z" fill="#141C3A" id="svg_62"/>
    </g>
    <g fill="#141C3A" fill-rule="nonzero" id="Group-94" transform="translate(199 589)">
     <path d="m69.54,96.05c-4.84,-4.27 -9.68,-8.52 -14.53,-12.78c-7.72,-6.78 -15.42,-13.58 -23.14,-20.36c-1.77,-1.54 -3.53,-3.1 -5.28,-4.65c0,2.04 0,4.1 0,6.15c4.84,-4.27 9.68,-8.52 14.53,-12.78c7.72,-6.78 15.42,-13.59 23.14,-20.36c1.77,-1.54 3.53,-3.1 5.28,-4.65c1.73,-1.52 1.71,-4.64 0,-6.15c-1.84,-1.68 -4.4,-1.63 -6.26,0c-4.85,4.26 -9.68,8.51 -14.53,12.77c-7.72,6.78 -15.42,13.59 -23.14,20.36c-1.77,1.54 -3.54,3.11 -5.29,4.66c-1.7,1.49 -1.7,4.65 0,6.15c4.85,4.26 9.69,8.51 14.54,12.77c7.72,6.78 15.42,13.59 23.14,20.36c1.77,1.54 3.53,3.11 5.28,4.66c1.73,1.51 4.58,1.8 6.26,0c1.55,-1.66 1.84,-4.52 0,-6.15l0,0z" id="Shape"/>
     <path d="m143.32,26.65c4.84,4.26 9.68,8.51 14.53,12.77c7.72,6.78 15.42,13.59 23.14,20.36c1.77,1.54 3.53,3.11 5.28,4.66c0,-2.05 0,-4.11 0,-6.15c-4.84,4.26 -9.68,8.51 -14.53,12.78c-7.72,6.77 -15.42,13.58 -23.14,20.35c-1.77,1.54 -3.53,3.11 -5.28,4.66c-1.73,1.52 -1.71,4.63 0,6.15c1.84,1.67 4.4,1.63 6.26,0c4.85,-4.27 9.68,-8.52 14.53,-12.78c7.72,-6.78 15.42,-13.58 23.14,-20.36c1.77,-1.54 3.54,-3.1 5.29,-4.65c1.7,-1.5 1.7,-4.66 0,-6.15c-4.85,-4.27 -9.69,-8.52 -14.54,-12.78c-7.72,-6.78 -15.42,-13.58 -23.14,-20.36c-1.77,-1.54 -3.53,-3.1 -5.28,-4.65c-1.73,-1.52 -4.58,-1.81 -6.26,0c-1.55,1.65 -1.84,4.52 0,6.15l0,0z" id="svg_63"/>
     <path d="m90.66,121.64c1.32,-3.9 2.63,-7.82 3.96,-11.75c3.16,-9.41 6.33,-18.8 9.49,-28.2c3.81,-11.34 7.61,-22.66 11.44,-34.01c3.3,-9.8 6.59,-19.6 9.89,-29.4c1.57,-4.76 3.34,-9.5 4.8,-14.32c0.02,-0.07 0.04,-0.13 0.07,-0.2c0.72,-2.15 -0.85,-4.84 -3.1,-5.35c-2.44,-0.54 -4.67,0.72 -5.44,3.05c-1.33,3.91 -2.64,7.82 -3.97,11.75c-3.16,9.41 -6.32,18.8 -9.49,28.21c-3.8,11.34 -7.61,22.65 -11.43,34c-3.3,9.8 -6.59,19.6 -9.89,29.4c-1.57,4.74 -3.35,9.48 -4.8,14.3c-0.03,0.07 -0.05,0.13 -0.07,0.2c-0.73,2.15 0.84,4.84 3.1,5.35c2.43,0.54 4.66,-0.72 5.44,-3.03l0,0z" id="svg_64"/>
    </g>
   </g>
  </g>
 </g>
</svg>